<?xml version="1.0" encoding="utf-8"?>
<!-- Generator: Adobe Illustrator 22.0.1, SVG Export Plug-In . SVG Version: 6.00 Build 0)  -->
<svg version="1.1" id="Layer_1" xmlns="http://www.w3.org/2000/svg" xmlns:xlink="http://www.w3.org/1999/xlink" x="0px" y="0px"
	 viewBox="0 0 636.1 140.4" style="enable-background:new 0 0 636.1 140.4;" xml:space="preserve">
<style type="text/css">
	.st0{display:none;fill:url(#SVGID_1_);}
	.st1{display:none;fill:url(#SVGID_2_);}
	.st2{display:none;fill:url(#SVGID_3_);}
	.st3{display:none;fill:url(#SVGID_4_);}
	.st4{display:none;fill:url(#SVGID_5_);}
	.st5{display:none;fill:url(#SVGID_6_);}
	.st6{display:none;}
	.st7{display:inline;}
	.st8{fill:url(#SVGID_7_);}
	.st9{fill:url(#SVGID_8_);}
	.st10{fill:url(#SVGID_9_);}
	.st11{fill:#26A8F7;}
	.st12{font-family:'NazegulItalic';}
	.st13{font-size:92.3977px;}
	.st14{fill:#2099F6;stroke:#83DCFF;stroke-width:2;stroke-linejoin:round;stroke-miterlimit:10;}
	.st15{fill:#2099F6;stroke:#83DCFF;stroke-width:2;stroke-miterlimit:10;}
	.st16{fill:none;stroke:#83DCFF;stroke-width:2;stroke-miterlimit:10;}
	.st17{fill:none;stroke:#83DCFF;stroke-width:2;stroke-linecap:round;stroke-miterlimit:10;}
	.st18{fill:#2099F6;}
	.st19{fill:#83DCFF;}
</style>
<linearGradient id="SVGID_1_" gradientUnits="userSpaceOnUse" x1="-14.647" y1="14.3" x2="656.5567" y2="14.3" gradientTransform="matrix(1 0 0 1 0 40)">
	<stop  offset="1.502404e-03" style="stop-color:#DA8CFF"/>
	<stop  offset="1" style="stop-color:#9A55FF"/>
</linearGradient>
<path class="st0" d="M202.9,65.2v38.1H179v-98h38.7c7.6,0,14.2,1.4,19.6,4.2c5.4,2.8,9.5,6.5,12.3,11c2.7,4.6,4.1,9.5,4.1,14.8
	c0,4.5-1.1,9-3.3,13.5s-6,8.4-11.4,11.6c-5.4,3.2-12.5,4.8-21.4,4.8H202.9z M226.3,43.8c2.1-2.1,3.1-5,3.1-8.5
	c0-3.4-1.1-6.3-3.2-8.5c-2.1-2.2-5-3.3-8.5-3.3h-14.8V47h14.8C221.4,47,224.2,46,226.3,43.8z"/>
<linearGradient id="SVGID_2_" gradientUnits="userSpaceOnUse" x1="-14.647" y1="24.75" x2="656.5567" y2="24.75" gradientTransform="matrix(1 0 0 1 0 40)">
	<stop  offset="1.502404e-03" style="stop-color:#DA8CFF"/>
	<stop  offset="1" style="stop-color:#9A55FF"/>
</linearGradient>
<path class="st1" d="M340.9,25.4v77.9H317V91.8c-2.3,3.8-5.5,6.8-9.6,9c-4,2.2-8.7,3.3-14,3.3c-5.9,0-11-1.3-15.6-4
	c-4.5-2.7-8-6.5-10.6-11.5s-3.8-10.9-3.8-17.7V25.4h23.7v42.3c0,5,1.3,8.9,4,11.7c2.7,2.7,6.3,4.1,11,4.1s8.3-1.4,11-4.1
	s4-6.6,4-11.7V25.4H340.9z"/>
<linearGradient id="SVGID_3_" gradientUnits="userSpaceOnUse" x1="-14.647" y1="23.95" x2="656.5567" y2="23.95" gradientTransform="matrix(1 0 0 1 0 40)">
	<stop  offset="1.502404e-03" style="stop-color:#DA8CFF"/>
	<stop  offset="1" style="stop-color:#9A55FF"/>
</linearGradient>
<path class="st2" d="M395.3,28.7c3.8-2.7,8-4.1,12.7-4.1v24.3h-5.9c-5.5,0-9.6,1.3-12.4,3.9c-2.7,2.6-4.1,7.2-4.1,13.7v36.8h-23.9
	V25.4h23.9v14.5C388.3,35.2,391.5,31.4,395.3,28.7z"/>
<linearGradient id="SVGID_4_" gradientUnits="userSpaceOnUse" x1="-14.647" y1="42.5979" x2="656.5567" y2="42.5979" gradientTransform="matrix(1 0 0 1 0 40)">
	<stop  offset="1.502404e-03" style="stop-color:#DA8CFF"/>
	<stop  offset="1" style="stop-color:#9A55FF"/>
</linearGradient>
<path class="st3" d="M485.5,29.7c5.4,3.4,9.7,8.1,12.9,14.2c3.2,6,4.7,12.9,4.7,20.7c0,7.7-1.6,14.6-4.7,20.7
	c-3.2,6-7.5,10.7-12.9,14.1s-11.4,5-17.8,5c-9.7,0-17.3-4.1-22.9-12.3v48.4H421v-115h23.9v10.2c5.3-7.3,12.9-11,22.9-11
	C474.2,24.6,480.1,26.3,485.5,29.7z M453.7,47.4c-2.6,1.4-4.7,3.6-6.4,6.4c-1.6,2.8-2.4,6.4-2.4,10.5c0,4.2,0.8,7.7,2.4,10.6
	s3.8,5,6.4,6.5c2.7,1.4,5.4,2.2,8.2,2.2c2.9,0,5.6-0.7,8.2-2.2c2.6-1.4,4.7-3.6,6.3-6.4c1.6-2.8,2.4-6.4,2.4-10.5
	c0-4.2-0.8-7.7-2.4-10.6c-1.6-2.9-3.8-5-6.4-6.5c-2.7-1.4-5.4-2.2-8.2-2.2S456.3,45.9,453.7,47.4z"/>
<linearGradient id="SVGID_5_" gradientUnits="userSpaceOnUse" x1="-14.647" y1="11.65" x2="656.5567" y2="11.65" gradientTransform="matrix(1 0 0 1 0 40)">
	<stop  offset="1.502404e-03" style="stop-color:#DA8CFF"/>
	<stop  offset="1" style="stop-color:#9A55FF"/>
</linearGradient>
<path class="st4" d="M542.3,0v103.3h-23.9V0H542.3z"/>
<linearGradient id="SVGID_6_" gradientUnits="userSpaceOnUse" x1="-14.647" y1="24.5" x2="656.5567" y2="24.5" gradientTransform="matrix(1 0 0 1 0 40)">
	<stop  offset="1.502404e-03" style="stop-color:#DA8CFF"/>
	<stop  offset="1" style="stop-color:#9A55FF"/>
</linearGradient>
<path class="st5" d="M635.5,72.2h-53.6c0.5,3.4,2,6.3,4.6,8.4c2.6,2.2,5.9,3.3,9.8,3.3c3,0,5.2-0.4,6.7-1.3s3.1-2.3,4.7-4.4h25.8
	c-2.2,7.8-6.7,14.1-13.4,18.9s-14.7,7.2-23.9,7.2c-7.4,0-14.1-1.6-20-4.9s-10.5-7.9-13.8-14s-5-13.1-5-21.1s1.7-15,5-21
	s7.9-10.6,13.7-13.8c5.9-3.2,12.5-4.8,20-4.8s14.3,1.6,20.4,4.7c6,3.1,10.8,7.7,14.3,13.7s5.2,13.3,5.2,21.6
	C636.1,67.3,635.9,69.8,635.5,72.2z M611.2,57.2c-0.4-3.6-2-6.6-4.7-8.9c-2.8-2.3-6.2-3.4-10.3-3.4c-3.5,0-6.6,1.1-9.2,3.4
	c-2.6,2.3-4.2,5.2-4.9,8.9C582.1,57.2,611.2,57.2,611.2,57.2z"/>
<g class="st6">
	<g class="st7">
		
			<linearGradient id="SVGID_7_" gradientUnits="userSpaceOnUse" x1="-14.647" y1="-6.275" x2="656.5567" y2="-6.275" gradientTransform="matrix(1 0 0 1 0 40)">
			<stop  offset="1.502404e-03" style="stop-color:#DA8CFF"/>
			<stop  offset="1" style="stop-color:#9A55FF"/>
		</linearGradient>
		<path class="st8" d="M100.2,30L53.1,6.5c-1.2-0.6-2.5-0.6-3.7,0L2.3,30C0.9,30.7,0,32.2,0,33.7c0,1.6,0.9,3,2.3,3.7L49.4,61
			c0.6,0.3,1.2,0.4,1.9,0.4c0.6,0,1.3-0.1,1.9-0.4l47.1-23.5c1.4-0.7,2.3-2.1,2.3-3.7C102.5,32.2,101.6,30.7,100.2,30z M51.2,52.7
			l-37.8-19l37.8-18.9L89,33.7L51.2,52.7z"/>
	</g>
</g>
<g class="st6">
	<g class="st7">
		
			<linearGradient id="SVGID_8_" gradientUnits="userSpaceOnUse" x1="-14.647" y1="52.586" x2="656.5567" y2="52.586" gradientTransform="matrix(1 0 0 1 0 40)">
			<stop  offset="1.502404e-03" style="stop-color:#DA8CFF"/>
			<stop  offset="1" style="stop-color:#9A55FF"/>
		</linearGradient>
		<path class="st9" d="M102,79c-1-2-3.5-2.9-5.6-1.9L51.2,99.8L6,77.1c-2-1-4.5-0.2-5.6,1.9c-1,2-0.2,4.5,1.9,5.6l47.1,23.5
			c0.6,0.3,1.2,0.4,1.9,0.4c0.6,0,1.3-0.1,1.9-0.4l47.1-23.5C102.2,83.5,103,81,102,79z"/>
	</g>
</g>
<g class="st6">
	<g class="st7">
		
			<linearGradient id="SVGID_9_" gradientUnits="userSpaceOnUse" x1="-14.647" y1="29.0447" x2="656.5567" y2="29.0447" gradientTransform="matrix(1 0 0 1 0 40)">
			<stop  offset="1.502404e-03" style="stop-color:#DA8CFF"/>
			<stop  offset="1" style="stop-color:#9A55FF"/>
		</linearGradient>
		<path class="st10" d="M102,55.4c-1-2-3.5-2.9-5.6-1.9L51.2,76.2L6,53.6c-2-1-4.5-0.2-5.6,1.9c-1,2-0.2,4.5,1.9,5.6l47.1,23.5
			c0.6,0.3,1.2,0.4,1.9,0.4c0.6,0,1.3-0.1,1.9-0.4l47-23.6C102.2,60,103,57.5,102,55.4z"/>
	</g>
</g>
<text transform="matrix(1 0 0 1 154.3701 107.0843)" class="st11 st12 st13">Sisirtarif</text>
<g>
	<g>
		
			<rect x="39.7" y="62.4" transform="matrix(1.163389e-02 -0.9999 0.9999 1.163389e-02 -27.6816 118.5901)" class="st14" width="12.8" height="21.7"/>
		<path class="st15" d="M64.9,44c0.1-10.7-8.5-19.5-19.2-19.6C35,24.2,26.2,32.8,26.1,43.5c-0.1,7.3,3.9,13.6,9.8,17
			c0.6-0.5,1.4-0.9,2.3-0.9l16.3,0.2c0.5,0,1,0.1,1.4,0.3C61.2,56.8,64.8,50.8,64.9,44z"/>
		<line class="st16" x1="45.3" y1="59" x2="45.4" y2="48.6"/>
		<path class="st15" d="M57.7,67l-23-0.3c-0.1,0-0.2-0.1-0.2-0.2l0.1-6.7c0-0.1,0.1-0.2,0.2-0.2l23,0.3c0.1,0,0.2,0.1,0.2,0.2
			l-0.1,6.7C57.9,66.9,57.8,67,57.7,67z"/>
		<circle class="st15" cx="45.5" cy="43.8" r="4.9"/>
	</g>
	<g>
		
			<rect x="64.5" y="82.8" transform="matrix(0.9999 -1.627818e-02 1.627818e-02 0.9999 -1.5183 1.1157)" class="st14" width="6.6" height="22.1"/>
		<path class="st14" d="M96.7,102.4c0.6,0.4,1.3,0.6,2,0.6l10.3-0.2c2.1,0,3.9-1.8,3.8-4c0-2.1-1.8-3.9-4-3.8l-10.3,0.2
			c-0.8,0-1.4,0.3-2,0.7L96.7,102.4z"/>
		<path class="st14" d="M96.5,88.6c0.6,0.4,1.3,0.6,2,0.6l10.3-0.2c2.1,0,3.9-1.8,3.8-4c0-2.1-1.8-3.9-4-3.8l-10.3,0.2
			c-0.8,0-1.4,0.3-2,0.7L96.5,88.6z"/>
		
			<rect x="77.2" y="76" transform="matrix(0.9999 -1.627818e-02 1.627818e-02 0.9999 -1.5102 1.4263)" class="st14" width="19.4" height="34.9"/>
		<path class="st15" d="M70.9,82.4l0.4,22.7c0.1,3.3,2.8,6,6.2,6l-0.6-34.9C73.5,76.3,70.8,79,70.9,82.4z"/>
		<line class="st17" x1="83.3" y1="111" x2="83.2" y2="103.3"/>
		<line class="st17" x1="91.1" y1="110.9" x2="91" y2="103.2"/>
		<line class="st17" x1="90.6" y1="84.5" x2="90.5" y2="76.8"/>
		<line class="st17" x1="82.8" y1="84.6" x2="82.7" y2="76.9"/>
	</g>
	<path class="st15" d="M64.2,88.6H37.3c-7.6,0-13.7,6.1-13.7,13.7S29.7,116,37.3,116S51,109.9,51,102.3c0-1.4,0.3-2.7-0.1-4h13.3
		C64.2,98.3,64.2,88.6,64.2,88.6z M37.1,106.2c-1.9,0-3.5-1.6-3.5-3.5s1.6-3.5,3.5-3.5s3.5,1.6,3.5,3.5S39,106.2,37.1,106.2z"/>
	<rect x="40.6" y="79.8" class="st15" width="9.7" height="24"/>
	<path class="st18" d="M41,105c0,0,0.5-0.7,0.6-2.5l2.9-1l3,0.2l1.8,0.8c0,0,0.5,1.6-0.5,3.6s-4,1.4-4.4,1.4
		C44.2,107.5,41,105,41,105z"/>
	<path class="st19" d="M49.4,102.5c0,0,0,3.1-0.1,4c-0.2,1.1,1.1-0.7,1.1-0.7s0.3-1.8,0.2-1.9C50.5,103.9,49.4,102.5,49.4,102.5z"/>
	<rect x="41.9" y="87.3" class="st18" width="7" height="3.1"/>
</g>
</svg>
