<?xml version="1.0" encoding="utf-8"?>
<!-- Generator: Adobe Illustrator 22.0.1, SVG Export Plug-In . SVG Version: 6.00 Build 0)  -->
<svg version="1.1" id="Layer_1" xmlns="http://www.w3.org/2000/svg" xmlns:xlink="http://www.w3.org/1999/xlink" x="0px" y="0px"
	 viewBox="0 0 102.5 102.5" style="enable-background:new 0 0 102.5 102.5;" xml:space="preserve">
<style type="text/css">
	.st0{fill:#FFFFFF;stroke:#2099F6;stroke-width:2;stroke-linejoin:round;stroke-miterlimit:10;}
	.st1{fill:#FFFFFF;stroke:#2099F6;stroke-width:2;stroke-miterlimit:10;}
	.st2{fill:none;stroke:#2099F6;stroke-width:2;stroke-miterlimit:10;}
	.st3{fill:none;stroke:#2099F6;stroke-width:2;stroke-linecap:round;stroke-miterlimit:10;}
	.st4{fill:#FFFFFF;}
	.st5{fill:#2099F6;}
</style>
<g>
	<g>
		
			<rect x="21" y="47.9" transform="matrix(0.9999 1.163351e-02 -1.163351e-02 0.9999 0.6341 -0.3673)" class="st0" width="21.7" height="12.8"/>
		<path class="st1" d="M50.7,25c0.1-10.7-8.5-19.5-19.2-19.6C20.7,5.3,12,13.9,11.8,24.6c-0.1,7.3,3.9,13.6,9.8,17
			c0.6-0.5,1.4-0.9,2.3-0.9l16.3,0.2c0.5,0,1,0.1,1.4,0.3C47,37.8,50.6,31.9,50.7,25z"/>
		<line class="st2" x1="31.1" y1="40.1" x2="31.2" y2="29.7"/>
		<path class="st1" d="M43.5,48.1l-23-0.3c-0.1,0-0.2-0.1-0.2-0.2l0.1-6.7c0-0.1,0.1-0.2,0.2-0.2l23,0.3c0.1,0,0.2,0.1,0.2,0.2
			l-0.1,6.7C43.7,48,43.6,48.1,43.5,48.1z"/>
		<circle class="st1" cx="31.2" cy="24.8" r="4.9"/>
	</g>
	<g>
		
			<rect x="42.5" y="71.6" transform="matrix(-1.627871e-02 -0.9999 0.9999 -1.627871e-02 -20.438 129.5931)" class="st0" width="22.1" height="6.6"/>
		<path class="st0" d="M82.4,83.5c0.6,0.4,1.3,0.6,2,0.6l10.3-0.2c2.1,0,3.9-1.8,3.8-4c0-2.1-1.8-3.9-4-3.8l-10.3,0.2
			c-0.8,0-1.4,0.3-2,0.7L82.4,83.5z"/>
		<path class="st0" d="M82.2,69.6c0.6,0.4,1.3,0.6,2,0.6l10.3-0.2c2.1,0,3.9-1.8,3.8-4c0-2.1-1.8-3.9-4-3.8l-10.3,0.2
			c-0.8,0-1.4,0.3-2,0.7L82.2,69.6z"/>
		
			<rect x="55.2" y="64.8" transform="matrix(-1.627871e-02 -0.9999 0.9999 -1.627871e-02 -0.7484 148.3438)" class="st0" width="34.9" height="19.4"/>
		<path class="st1" d="M56.6,63.4L57,86.2c0.1,3.3,2.8,6,6.2,6l-0.6-34.9C59.3,57.3,56.6,60.1,56.6,63.4z"/>
		<line class="st3" x1="69.1" y1="92" x2="68.9" y2="84.4"/>
		<line class="st3" x1="76.9" y1="91.9" x2="76.8" y2="84.2"/>
		<line class="st3" x1="76.4" y1="65.5" x2="76.2" y2="57.8"/>
		<line class="st3" x1="68.5" y1="65.6" x2="68.4" y2="57.9"/>
	</g>
	<path class="st1" d="M49.9,69.7H23.1c-7.6,0-13.7,6.1-13.7,13.7c0,7.6,6.1,13.7,13.7,13.7S36.8,91,36.8,83.4c0-1.4,0.3-2.7-0.1-4
		h13.3V69.7z M22.9,87.2c-1.9,0-3.5-1.6-3.5-3.5c0-1.9,1.6-3.5,3.5-3.5c1.9,0,3.5,1.6,3.5,3.5C26.4,85.7,24.8,87.2,22.9,87.2z"/>
	<rect x="26.4" y="60.8" class="st1" width="9.7" height="24"/>
	<path class="st4" d="M27,86.1c0,0,0.5-0.7,0.6-2.5l2.9-1l3,0.2l1.3,0.8c0,0,0.8,1.5,0,3.6c-0.7,2.1-4,1.4-4.4,1.4
		C30.2,88.5,27,86.1,27,86.1z"/>
	<path class="st5" d="M34.9,83.6c0,0,0.1,2.9-0.1,3.9c-0.2,1.1,1.3-0.6,1.3-0.6s0.3-1.8,0.2-1.9C36.3,85,34.9,83.6,34.9,83.6z"/>
	<rect x="27.6" y="68.3" class="st4" width="7" height="3.1"/>
</g>
</svg>
